# xmcd CD database file
#
# Track frame offsets:
#	225
#	27638
#	42275
#	59113
#	89833
#	122548
#	151475
#
# Disc length: 2246 seconds
#
# Revision: 0
# Processed by: cddbd v1.5.1PL0 Copyright (c) Steve Scherf et al.
# Submitted via: CDex 1.51
#
DISCID=6408c307
DTITLE=Tommy Flanagan - The Master Trio - Blues In The Closet
DYEAR=1983
DGENRE=Jazz
TTITLE0=Good Bait
TTITLE1=Afternoon In Paris
TTITLE2=Giant Steps
TTITLE3=Blues In the Closet
TTITLE4=Sister cheryl
TTITLE5=My Ship
TTITLE6=Moose the Mooch
EXTD=YEAR: 1983
EXTT0=
EXTT1=
EXTT2=
EXTT3=
EXTT4=
EXTT5=
EXTT6=
PLAYORDER=
